<svg width="26" height="20" viewBox="0 0 26 20" fill="none" xmlns="http://www.w3.org/2000/svg">
<path d="M23.7999 8.78898C24.3529 9.51231 24.3529 10.4888 23.7999 11.211C22.0581 13.4848 17.8791 18.1666 13.0001 18.1666C8.12109 18.1666 3.94209 13.4848 2.20026 11.211C1.93121 10.8646 1.78516 10.4386 1.78516 9.99998C1.78516 9.56141 1.93121 9.13533 2.20026 8.78898C3.94209 6.51515 8.12109 1.83331 13.0001 1.83331C17.8791 1.83331 22.0581 6.51515 23.7999 8.78898V8.78898Z" stroke="#FBFBFB" stroke-width="2" stroke-linecap="round" stroke-linejoin="round"/>
<path d="M13 13.5C14.933 13.5 16.5 11.933 16.5 10C16.5 8.067 14.933 6.5 13 6.5C11.067 6.5 9.5 8.067 9.5 10C9.5 11.933 11.067 13.5 13 13.5Z" stroke="#FBFBFB" stroke-width="2" stroke-linecap="round" stroke-linejoin="round"/>
</svg>
