<svg width="24" height="24" viewBox="0 0 24 24" fill="none" xmlns="http://www.w3.org/2000/svg">
<path d="M2 3.66667C2 2.74667 2.74667 2 3.66667 2H6.33333C6.59855 2 6.8529 1.89464 7.04044 1.70711C7.22798 1.51957 7.33333 1.26522 7.33333 1C7.33333 0.734783 7.22798 0.480429 7.04044 0.292893C6.8529 0.105357 6.59855 0 6.33333 0H3.66667C2.69421 0 1.76158 0.386308 1.07394 1.07394C0.386308 1.76158 0 2.69421 0 3.66667V6.33333C0 6.59855 0.105357 6.8529 0.292893 7.04044C0.480429 7.22798 0.734783 7.33333 1 7.33333C1.26522 7.33333 1.51957 7.22798 1.70711 7.04044C1.89464 6.8529 2 6.59855 2 6.33333V3.66667Z" fill="#FBFBFB"/>
<path d="M2 20.3334C2 21.2534 2.74667 22 3.66667 22H6.33333C6.59855 22 6.8529 22.1054 7.04044 22.2929C7.22798 22.4804 7.33333 22.7348 7.33333 23C7.33333 23.2652 7.22798 23.5196 7.04044 23.7071C6.8529 23.8947 6.59855 24 6.33333 24H3.66667C2.69421 24 1.76158 23.6137 1.07394 22.9261C0.386308 22.2384 0 21.3058 0 20.3334V17.6667C0 17.4015 0.105357 17.1471 0.292893 16.9596C0.480429 16.772 0.734783 16.6667 1 16.6667C1.26522 16.6667 1.51957 16.772 1.70711 16.9596C1.89464 17.1471 2 17.4015 2 17.6667V20.3334Z" fill="#FBFBFB"/>
<path d="M20.3332 2C21.2532 2 21.9998 2.74667 21.9998 3.66667V6.33333C21.9998 6.59855 22.1052 6.8529 22.2927 7.04044C22.4803 7.22798 22.7346 7.33333 22.9998 7.33333C23.2651 7.33333 23.5194 7.22798 23.7069 7.04044C23.8945 6.8529 23.9998 6.59855 23.9998 6.33333V3.66667C23.9998 2.69421 23.6135 1.76158 22.9259 1.07394C22.2383 0.386308 21.3056 0 20.3332 0H17.6665C17.4013 0 17.1469 0.105357 16.9594 0.292893C16.7719 0.480429 16.6665 0.734783 16.6665 1C16.6665 1.26522 16.7719 1.51957 16.9594 1.70711C17.1469 1.89464 17.4013 2 17.6665 2H20.3332Z" fill="#FBFBFB"/>
<path d="M21.9998 20.3334C21.9998 21.2534 21.2532 22 20.3332 22H17.6665C17.4013 22 17.1469 22.1054 16.9594 22.2929C16.7719 22.4804 16.6665 22.7348 16.6665 23C16.6665 23.2652 16.7719 23.5196 16.9594 23.7071C17.1469 23.8947 17.4013 24 17.6665 24H20.3332C21.3056 24 22.2383 23.6137 22.9259 22.9261C23.6135 22.2384 23.9998 21.3058 23.9998 20.3334V17.6667C23.9998 17.4015 23.8945 17.1471 23.7069 16.9596C23.5194 16.772 23.2651 16.6667 22.9998 16.6667C22.7346 16.6667 22.4803 16.772 22.2927 16.9596C22.1052 17.1471 21.9998 17.4015 21.9998 17.6667V20.3334Z" fill="#FBFBFB"/>
</svg>
