<?xml version="1.0" standalone="no"?>
<!DOCTYPE svg PUBLIC "-//W3C//DTD SVG 20010904//EN"
 "http://www.w3.org/TR/2001/REC-SVG-20010904/DTD/svg10.dtd">
<svg version="1.0" xmlns="http://www.w3.org/2000/svg"
 width="700.000000pt" height="700.000000pt" viewBox="0 0 700.000000 700.000000"
 preserveAspectRatio="xMidYMid meet">
<metadata>
Created by potrace 1.14, written by Peter Selinger 2001-2017
</metadata>
<g transform="translate(0.000000,700.000000) scale(0.100000,-0.100000)"
fill="#000000" stroke="none">
<path d="M3278 6995 c-1 -1 -42 -6 -89 -9 -47 -4 -94 -8 -105 -10 -10 -2 -46
-7 -79 -11 -32 -4 -68 -9 -80 -11 -11 -2 -45 -8 -75 -14 -400 -73 -842 -245
-1195 -465 -473 -294 -870 -695 -1156 -1170 -87 -145 -213 -403 -264 -540 -20
-55 -41 -109 -45 -120 -21 -49 -99 -326 -116 -410 -2 -11 -6 -31 -9 -45 -17
-79 -40 -231 -53 -350 -9 -86 -9 -608 0 -687 38 -313 72 -470 165 -758 217
-670 637 -1251 1234 -1708 137 -105 341 -229 538 -327 375 -187 757 -297 1201
-347 138 -16 735 -7 792 12 7 2 33 6 58 9 323 38 734 168 1084 343 441 220
864 569 1173 967 110 143 144 190 198 277 159 259 268 490 362 764 60 177 93
309 138 555 7 40 21 145 32 240 8 74 10 519 2 602 -8 84 -18 172 -24 213 -1
11 -6 43 -10 70 -19 135 -85 394 -145 575 -72 213 -214 511 -333 700 -69 108
-97 140 -97 107 0 -9 -22 -73 -49 -144 -123 -325 -300 -648 -490 -898 -25 -33
-49 -64 -53 -70 -43 -57 -208 -243 -257 -288 -273 -252 -676 -494 -1186 -712
-99 -42 -189 -80 -200 -85 -59 -26 -362 -135 -510 -183 -297 -97 -388 -124
-569 -169 -96 -23 -176 -45 -176 -48 0 -9 63 -13 175 -13 177 -1 387 18 645
58 25 4 52 9 60 10 8 1 35 6 60 10 25 4 81 15 125 25 45 11 92 21 105 24 14 3
66 17 115 31 50 15 104 30 120 34 17 4 64 19 105 34 455 155 865 366 1283 661
87 61 190 133 228 160 38 27 72 46 76 42 11 -11 4 -73 -16 -138 -81 -264 -129
-409 -168 -508 -50 -126 -127 -284 -167 -343 -14 -21 -26 -40 -26 -43 0 -3
-24 -37 -53 -77 -192 -259 -513 -537 -830 -720 -186 -107 -415 -205 -524 -223
-16 -2 -50 -9 -78 -14 -27 -5 -68 -12 -90 -15 -23 -3 -51 -7 -63 -10 -133 -25
-670 -26 -824 0 -13 2 -50 6 -83 10 -54 5 -189 26 -270 41 -134 24 -346 70
-422 90 -51 13 -137 35 -190 50 -54 14 -143 39 -198 55 -55 17 -145 44 -200
60 -55 17 -141 44 -191 60 -50 16 -99 31 -110 34 -68 14 -730 247 -745 262 -4
4 83 100 193 213 436 446 931 942 1062 1065 77 72 146 137 155 145 9 9 57 52
106 95 50 44 92 82 95 85 3 3 32 27 65 55 33 27 65 54 71 60 6 5 26 21 44 35
18 14 38 30 44 35 12 11 126 94 196 141 65 45 215 137 285 174 77 42 232 120
238 120 3 0 21 7 41 15 20 8 38 15 41 15 3 0 18 6 33 13 53 28 302 106 385
123 289 56 506 71 755 50 88 -7 104 -9 162 -21 14 -3 43 -7 65 -11 64 -9 296
-71 381 -102 44 -16 150 -59 237 -96 168 -72 218 -82 273 -53 54 28 118 102
215 247 132 198 244 451 315 708 22 82 24 96 11 110 -8 10 -25 30 -38 46 -97
116 -293 311 -414 411 -33 28 -62 53 -65 56 -3 3 -48 37 -100 76 -364 268
-763 460 -1200 577 -171 46 -235 58 -555 101 -44 6 -551 16 -557 10z"/>
</g>
</svg>
