<svg xmlns="http://www.w3.org/2000/svg" xmlns:xlink="http://www.w3.org/1999/xlink" viewBox="0 0 259.14 221.76"><defs><style>.cls-1{fill:url(#Безымянный_градиент_4);}.cls-2{fill:url(#Безымянный_градиент_4-2);}.cls-3{fill:#1d1d1b;}</style><linearGradient id="Безымянный_градиент_4" x1="112.38" y1="20.45" x2="143.49" y2="114.18" gradientUnits="userSpaceOnUse"><stop offset="0" stop-color="#3aaa35"/><stop offset="1" stop-color="#008d36"/></linearGradient><linearGradient id="Безымянный_градиент_4-2" x1="183.4" y1="-3.12" x2="214.51" y2="90.61" xlink:href="#Безымянный_градиент_4"/></defs><g id="Слой_2" data-name="Слой 2"><g id="Слой_1-2" data-name="Слой 1"><path class="cls-1" d="M201.79,72.24a72.24,72.24,0,1,1-16-45.4c-1.92,7.45-4.84,14.32-9.67,20.11-1.28,1.55-2.53,2.17-4.54,1.64-3.1-.79-27.92-17.08-59.87,6.52C98.33,65,75.12,90.51,72.34,92.8c.32.63,24.5,8.82,36.44,11.48,11.76,2.64,23.49,3.91,35.12,1.53,6.18-1.27,18.13-7.47,26.84-17.86,5.22-6.22,7.69-14.33,10-22.42.18-.65.62-1.32,0-2.25-1.06.74-2.1,1.46-3.12,2.22-12,8.89-24.87,15.41-39.31,18.42-5.37,1.13-17.6,2.76-21.77,1.71,7.05-1.36,43-11.28,57-26.79a74.51,74.51,0,0,0,9.69-13.54,76.19,76.19,0,0,0,6-13.79A72,72,0,0,1,201.79,72.24Z"/><path class="cls-2" d="M194,9.37c-1.18,7.39-2.41,15.11-4.77,22.14-1.11-1.62-2.27-3.17-3.49-4.67.6-2.24,1.11-4.56,1.55-6.9a156.6,156.6,0,0,0,2.17-16.86c.07-1,.26-1.9.44-3.08A30,30,0,0,1,194,6.06C194.64,7.1,194.17,8.29,194,9.37Z"/><path class="cls-3" d="M222.75,178.53a15.68,15.68,0,1,1-3.49-9.85,10.84,10.84,0,0,1-2.09,4.36.86.86,0,0,1-1,.36c-.67-.17-6.05-3.7-13,1.41-2.89,2.14-7.93,7.68-8.53,8.18a66,66,0,0,0,7.9,2.49,18,18,0,0,0,7.62.33,12.08,12.08,0,0,0,5.82-3.88,12.62,12.62,0,0,0,2.16-4.86c0-.14.14-.28,0-.49-.23.17-.46.32-.68.49a21.65,21.65,0,0,1-8.52,4,16.42,16.42,0,0,1-4.73.37c1.53-.29,9.33-2.44,12.37-5.81a15.9,15.9,0,0,0,2.1-2.93,16.85,16.85,0,0,0,1.31-3A15.54,15.54,0,0,1,222.75,178.53Z"/><path class="cls-3" d="M221.05,164.89a30,30,0,0,1-1,4.81c-.24-.36-.49-.69-.76-1,.13-.49.24-1,.34-1.49a34.21,34.21,0,0,0,.47-3.66c0-.21.06-.41.1-.67a6.2,6.2,0,0,1,.88,1.32C221.19,164.4,221.09,164.66,221.05,164.89Z"/><path class="cls-3" d="M23.32,163.46v21.72c-.62-.78-1.2-1.45-1.76-2.08s-1.11-1.18-1.64-1.73L0,162.21v32.58H4.7V173a22.14,22.14,0,0,0,1.43,1.85c.51.58,1,1.14,1.57,1.67L28,196V163.46Z"/><path class="cls-3" d="M50.51,162.21,35.33,194.79H40.7l3.63-8.08h12.4l3.57,8.08h5.36Zm-4.3,20.27,3.21-7.15a15.51,15.51,0,0,0,.58-1.64c.21-.58.39-1.23.56-1.9.2.72.39,1.39.6,2s.39,1.14.58,1.58L55,182.48Z"/><path class="cls-3" d="M67.31,163.46v4.33h8.33v27h5.09v-27H89v-4.33Z"/><path class="cls-3" d="M117.79,163.46v19c0,2.82-.64,5-1.94,6.36S112.59,191,110,191s-4.54-.7-5.86-2.13-1.94-3.54-1.94-6.36v-19h-5V183c0,4.24,1.07,7.43,3.2,9.51s5.34,3.15,9.65,3.15,7.54-1,9.69-3.15,3.19-5.27,3.19-9.51v-19.5Z"/><path class="cls-3" d="M134.38,163.46v31.33h5.09V163.46Z"/><path class="cls-3" d="M147.87,163.46v4.33h8.33v27h5.09v-27h8.29v-4.33Z"/><path class="cls-3" d="M178,163.46v31.33H183V163.46Z"/><path class="cls-3" d="M254.44,163.46v21.72c-.62-.78-1.2-1.45-1.75-2.08s-1.12-1.18-1.65-1.73l-19.92-19.16v32.58h4.7V173c.46.65,1,1.27,1.43,1.85s1,1.14,1.58,1.67L259.14,196V163.46Z"/><path d="M52.42,219.7a7.2,7.2,0,0,0,1.87.58,9.06,9.06,0,0,0,1.4.13,4.81,4.81,0,0,0,1-.08,2.36,2.36,0,0,0,.76-.28,1.44,1.44,0,0,0,.51-.53,1.51,1.51,0,0,0,.19-.8,1.22,1.22,0,0,0-.19-.7,1.56,1.56,0,0,0-.49-.5,3.55,3.55,0,0,0-.73-.36l-.87-.31c-.46-.15-.9-.31-1.33-.47a5.22,5.22,0,0,1-1.13-.58,2.72,2.72,0,0,1-.81-.81,2.27,2.27,0,0,1-.3-1.22,2.77,2.77,0,0,1,.3-1.32,2.66,2.66,0,0,1,.83-.93,3.53,3.53,0,0,1,1.21-.55,6.41,6.41,0,0,1,1.49-.17,6.7,6.7,0,0,1,.74,0,8.38,8.38,0,0,1,.83.13,8,8,0,0,1,.84.22,4.07,4.07,0,0,1,.76.36l-.55,1.22a7.92,7.92,0,0,0-1.45-.44,6.32,6.32,0,0,0-1.19-.12,4.25,4.25,0,0,0-.8.07,2,2,0,0,0-.68.26,1.5,1.5,0,0,0-.48.49,1.42,1.42,0,0,0-.18.74.84.84,0,0,0,.23.6,2.39,2.39,0,0,0,.57.44,4.5,4.5,0,0,0,.74.33l.71.24,1.32.44a4.94,4.94,0,0,1,1.17.59,2.71,2.71,0,0,1,.83.89,2.66,2.66,0,0,1,.32,1.38,2.8,2.8,0,0,1-.32,1.37,2.61,2.61,0,0,1-.86.95,4.16,4.16,0,0,1-1.32.54,7.47,7.47,0,0,1-1.68.17,8.42,8.42,0,0,1-1-.05c-.34,0-.67-.09-1-.15a7.24,7.24,0,0,1-1-.25,5.15,5.15,0,0,1-.81-.36Z"/><path d="M75.14,221.58v-7a6.08,6.08,0,0,0-.08-1,1.82,1.82,0,0,0-.28-.74,1.17,1.17,0,0,0-.58-.46,2.71,2.71,0,0,0-1-.15,3.43,3.43,0,0,0-.75.08,8.27,8.27,0,0,0-.83.19,6.74,6.74,0,0,0-.79.29,6.11,6.11,0,0,0-.68.37,4.8,4.8,0,0,1,.11.76c0,.26,0,.48,0,.67v7H68.54v-7.32a2.1,2.1,0,0,0-.47-1.51,1.66,1.66,0,0,0-1.25-.48,5,5,0,0,0-1.61.29,8.3,8.3,0,0,0-1.53.73v8.29H61.93V211h1.71l0,.95.09.06a7.83,7.83,0,0,1,1.81-.9,5.78,5.78,0,0,1,1.76-.31,3.54,3.54,0,0,1,1.49.3,2.55,2.55,0,0,1,1.06,1,9.54,9.54,0,0,1,.85-.5,7.67,7.67,0,0,1,1-.42,6.46,6.46,0,0,1,1-.28,4.75,4.75,0,0,1,1-.1,3.86,3.86,0,0,1,1.76.33,2.54,2.54,0,0,1,1,.85,2.94,2.94,0,0,1,.41,1.14,8.38,8.38,0,0,1,.08,1.21v7.25Z"/><path d="M87.53,220.26H89l.1,1a4,4,0,0,1-.89.32,4.78,4.78,0,0,1-1,.11,1.6,1.6,0,0,1-1-.25,1.44,1.44,0,0,1-.39-1.09l0,0a6.11,6.11,0,0,1-1.17.8,5.36,5.36,0,0,1-1,.41,3.56,3.56,0,0,1-.84.15l-.62,0a3.22,3.22,0,0,1-1.51-.31,2.74,2.74,0,0,1-.94-.75,3.05,3.05,0,0,1-.49-1,4,4,0,0,1-.14-1,2.74,2.74,0,0,1,1-2.22,5.12,5.12,0,0,1,3-1l2.71-.17v-.67a2.86,2.86,0,0,0-.48-1.87,2.36,2.36,0,0,0-1.8-.54,9.21,9.21,0,0,0-1.62.15,11.8,11.8,0,0,0-1.65.44l-.39-1.19a8.67,8.67,0,0,1,2-.63,10.13,10.13,0,0,1,2.07-.22,4,4,0,0,1,2.62.78,3.34,3.34,0,0,1,1,2.73Zm-4.42-3.55a2.39,2.39,0,0,0-1.6.54,1.71,1.71,0,0,0-.52,1.3,1.92,1.92,0,0,0,.45,1.39,2.07,2.07,0,0,0,1.5.45,3.14,3.14,0,0,0,1.41-.36,6.2,6.2,0,0,0,1.47-1v-2.47Z"/><path d="M92.94,212.51a7.62,7.62,0,0,1,.87-.66,7.78,7.78,0,0,1,1-.55,7.13,7.13,0,0,1,1-.39,2.9,2.9,0,0,1,.88-.15.67.67,0,0,1,.39.1.53.53,0,0,1,.16.44,1.35,1.35,0,0,1-.06.34,3.81,3.81,0,0,1-.13.45,3.38,3.38,0,0,1-.18.44,1.82,1.82,0,0,1-.24.37l-1.83.23-1.83.22v8.23H91.17V211h1.71l-.07,1.4Z"/><path d="M101,208.33V211h3.18v1.3H101v6.24a2.35,2.35,0,0,0,.29,1.24,1.27,1.27,0,0,0,1.18.48,7.86,7.86,0,0,0,2-.36l.28,1.19a6.1,6.1,0,0,1-1.29.43,6.42,6.42,0,0,1-1.35.15c-1.9,0-2.86-.86-2.86-2.59v-6.78H97.71v-.95l1.62-.51.55-2.34Z"/><path d="M116.54,210.78a4.91,4.91,0,0,1,1.79.28,3.59,3.59,0,0,1,1.2.74,3.25,3.25,0,0,1,.74,1,5.57,5.57,0,0,1,.38,1.13,7.2,7.2,0,0,1,.14,1.06c0,.33,0,.61,0,.82v.85h-7.08a7.18,7.18,0,0,0,.13,1.41,3.09,3.09,0,0,0,.48,1.18,2.45,2.45,0,0,0,.93.81,3.21,3.21,0,0,0,1.47.3,6.91,6.91,0,0,0,1.7-.19,12.85,12.85,0,0,0,1.68-.57l.43,1.13a8.54,8.54,0,0,1-1.92.74,8.8,8.8,0,0,1-2,.23,5.4,5.4,0,0,1-2.32-.43,3.78,3.78,0,0,1-1.44-1.16,4.27,4.27,0,0,1-.73-1.71,10,10,0,0,1-.21-2.09,8.56,8.56,0,0,1,.07-1.07,6.38,6.38,0,0,1,.24-1.2,7,7,0,0,1,.51-1.2,3.74,3.74,0,0,1,.85-1,4,4,0,0,1,1.24-.74A4.74,4.74,0,0,1,116.54,210.78Zm0,1.3a2.63,2.63,0,0,0-1.28.28,2.52,2.52,0,0,0-.86.76,3.35,3.35,0,0,0-.49,1.1,6.92,6.92,0,0,0-.21,1.3h5.39a6.87,6.87,0,0,0-.13-1.4,3,3,0,0,0-.42-1.09,1.89,1.89,0,0,0-.78-.7A2.6,2.6,0,0,0,116.59,212.08Z"/><path d="M124.67,216.23a8.15,8.15,0,0,0,.15,1.63,3.7,3.7,0,0,0,.5,1.29,2.31,2.31,0,0,0,.93.85,3.2,3.2,0,0,0,1.47.31,6.31,6.31,0,0,0,1.54-.18,9.85,9.85,0,0,0,1.51-.5l.48,1.18a8.11,8.11,0,0,1-1.66.64,7.46,7.46,0,0,1-2,.26,5.46,5.46,0,0,1-2.23-.4,3.68,3.68,0,0,1-1.47-1.11,4.66,4.66,0,0,1-.79-1.68,9.17,9.17,0,0,1-.23-2.09,9.49,9.49,0,0,1,.19-1.83,5.33,5.33,0,0,1,.73-1.84,4.26,4.26,0,0,1,1.47-1.42,4.76,4.76,0,0,1,2.44-.56,12.59,12.59,0,0,1,1.47.09,6.39,6.39,0,0,1,1.58.44l-.41,1.26a6.34,6.34,0,0,0-1.37-.32c-.4,0-.78-.06-1.12-.06a2.72,2.72,0,0,0-2.35,1.1A4.88,4.88,0,0,0,124.67,216.23Z"/><path d="M142.08,216.32a8.8,8.8,0,0,1-.23,2,4.87,4.87,0,0,1-.78,1.75,4,4,0,0,1-1.48,1.23,5.21,5.21,0,0,1-2.32.47,4.76,4.76,0,0,1-2.18-.45,3.66,3.66,0,0,1-1.39-1.18,4.74,4.74,0,0,1-.75-1.71,9.09,9.09,0,0,1-.23-2.06,8.23,8.23,0,0,1,.26-2.05,5.28,5.28,0,0,1,.82-1.78,4.11,4.11,0,0,1,1.48-1.25,4.64,4.64,0,0,1,2.2-.48,4.58,4.58,0,0,1,2.21.48,3.82,3.82,0,0,1,1.42,1.24,4.86,4.86,0,0,1,.75,1.77A9.78,9.78,0,0,1,142.08,216.32Zm-1.85,0a12,12,0,0,0-.09-1.45,4.51,4.51,0,0,0-.4-1.35,2.79,2.79,0,0,0-.85-1,2.35,2.35,0,0,0-1.41-.39,2.58,2.58,0,0,0-1.45.38,2.76,2.76,0,0,0-.88,1,4.22,4.22,0,0,0-.46,1.35,8.5,8.5,0,0,0-.13,1.49,10.77,10.77,0,0,0,.11,1.52,3.63,3.63,0,0,0,.42,1.29,2.45,2.45,0,0,0,.89.89,3,3,0,0,0,1.5.33,2.33,2.33,0,0,0,2.24-1.3,4.4,4.4,0,0,0,.41-1.3A9.73,9.73,0,0,0,140.23,216.36Z"/><path d="M152.28,212.51a7.48,7.48,0,0,1,.86-.66,7.89,7.89,0,0,1,1-.55,7,7,0,0,1,1-.39,3,3,0,0,1,.89-.15.67.67,0,0,1,.39.1.53.53,0,0,1,.15.44,1.85,1.85,0,0,1-.05.34c0,.15-.08.3-.13.45a3.43,3.43,0,0,1-.19.44,1.48,1.48,0,0,1-.24.37l-1.83.23-1.83.22v8.23H150.5V211h1.71l-.06,1.4Z"/><path d="M167,216.32a8.27,8.27,0,0,1-.23,2,4.87,4.87,0,0,1-.78,1.75,3.91,3.91,0,0,1-1.48,1.23,5.15,5.15,0,0,1-2.32.47,4.71,4.71,0,0,1-2.17-.45,3.69,3.69,0,0,1-1.4-1.18,4.92,4.92,0,0,1-.75-1.71,9.1,9.1,0,0,1-.22-2.06,7.79,7.79,0,0,1,.26-2.05,5.1,5.1,0,0,1,.82-1.78,4,4,0,0,1,1.47-1.25,4.69,4.69,0,0,1,2.21-.48,4.6,4.6,0,0,1,2.21.48,4,4,0,0,1,1.42,1.24,4.85,4.85,0,0,1,.74,1.77A9.15,9.15,0,0,1,167,216.32Zm-1.84,0a10.3,10.3,0,0,0-.1-1.45,4.24,4.24,0,0,0-.4-1.35,2.67,2.67,0,0,0-.84-1,2.35,2.35,0,0,0-1.41-.39,2.56,2.56,0,0,0-1.45.38,2.79,2.79,0,0,0-.89,1,4.21,4.21,0,0,0-.45,1.35,8.5,8.5,0,0,0-.13,1.49,10.78,10.78,0,0,0,.1,1.52,3.85,3.85,0,0,0,.43,1.29,2.38,2.38,0,0,0,.89.89,3,3,0,0,0,1.5.33,2.3,2.3,0,0,0,2.23-1.3,4.13,4.13,0,0,0,.41-1.3A9.73,9.73,0,0,0,165.16,216.36Z"/><path d="M171.09,211.69a7.59,7.59,0,0,1,1.73-.73,5.74,5.74,0,0,1,1.47-.2,4,4,0,0,1,1.92.42,3.29,3.29,0,0,1,1.23,1.17,5.38,5.38,0,0,1,.65,1.77,12,12,0,0,1,.19,2.22,9.31,9.31,0,0,1-.22,2.09,4.77,4.77,0,0,1-.76,1.71,3.75,3.75,0,0,1-1.41,1.16,4.87,4.87,0,0,1-2.18.43,10.9,10.9,0,0,1-2.23-.23,10.14,10.14,0,0,1-2.18-.72V206.19h1.75v3.09L171,211.6Zm2.85.54a4.57,4.57,0,0,0-1.53.27,7.82,7.82,0,0,0-1.36.61v6.72a4.92,4.92,0,0,0,1.33.4,7.58,7.58,0,0,0,1.21.1,3.49,3.49,0,0,0,1.21-.2,2,2,0,0,0,.9-.66,3.15,3.15,0,0,0,.57-1.22,7.63,7.63,0,0,0,.19-1.87,9.81,9.81,0,0,0-.18-2.07,3.5,3.5,0,0,0-.52-1.27,1.77,1.77,0,0,0-.81-.64A3,3,0,0,0,173.94,212.23Z"/><path d="M189.72,216.32a8.8,8.8,0,0,1-.23,2,4.87,4.87,0,0,1-.78,1.75,4,4,0,0,1-1.48,1.23,5.18,5.18,0,0,1-2.32.47,4.76,4.76,0,0,1-2.18-.45,3.66,3.66,0,0,1-1.39-1.18,4.74,4.74,0,0,1-.75-1.71,9.09,9.09,0,0,1-.23-2.06,8.23,8.23,0,0,1,.26-2.05,5.48,5.48,0,0,1,.82-1.78,4.11,4.11,0,0,1,1.48-1.25,5.33,5.33,0,0,1,4.42,0,3.86,3.86,0,0,1,1.41,1.24,4.7,4.7,0,0,1,.75,1.77A9.15,9.15,0,0,1,189.72,216.32Zm-1.84,0a12,12,0,0,0-.1-1.45,4.51,4.51,0,0,0-.4-1.35,2.69,2.69,0,0,0-.85-1,2.34,2.34,0,0,0-1.4-.39,2.54,2.54,0,0,0-1.45.38,2.7,2.7,0,0,0-.89,1,4.22,4.22,0,0,0-.46,1.35,9.58,9.58,0,0,0-.13,1.49,10.77,10.77,0,0,0,.11,1.52,3.63,3.63,0,0,0,.42,1.29,2.45,2.45,0,0,0,.89.89,3,3,0,0,0,1.51.33,2.43,2.43,0,0,0,1.39-.36,2.47,2.47,0,0,0,.84-.94,4.13,4.13,0,0,0,.41-1.3A9.73,9.73,0,0,0,187.88,216.36Z"/><path d="M194.5,208.33V211h3.19v1.3h-3.21v6.24a2.45,2.45,0,0,0,.29,1.24,1.28,1.28,0,0,0,1.18.48,8,8,0,0,0,2-.36l.28,1.19a6.1,6.1,0,0,1-1.29.43,6.49,6.49,0,0,1-1.35.15c-1.91,0-2.86-.86-2.86-2.59v-6.78h-1.54v-.95l1.62-.51.55-2.34Z"/><path d="M199.87,219.7a7.2,7.2,0,0,0,1.87.58,9.06,9.06,0,0,0,1.4.13,4.81,4.81,0,0,0,1-.08,2.36,2.36,0,0,0,.76-.28,1.44,1.44,0,0,0,.51-.53,1.51,1.51,0,0,0,.19-.8,1.22,1.22,0,0,0-.19-.7,1.56,1.56,0,0,0-.49-.5,3.55,3.55,0,0,0-.73-.36l-.87-.31c-.46-.15-.9-.31-1.33-.47a5.54,5.54,0,0,1-1.14-.58,2.8,2.8,0,0,1-.8-.81,2.27,2.27,0,0,1-.3-1.22,2.77,2.77,0,0,1,.3-1.32,2.66,2.66,0,0,1,.83-.93A3.53,3.53,0,0,1,202,211a6.41,6.41,0,0,1,1.49-.17,6.7,6.7,0,0,1,.74,0,8.38,8.38,0,0,1,.83.13,8.67,8.67,0,0,1,.84.22,3.71,3.71,0,0,1,.75.36l-.54,1.22a7.92,7.92,0,0,0-1.45-.44,6.32,6.32,0,0,0-1.19-.12,4.25,4.25,0,0,0-.8.07,2,2,0,0,0-.68.26,1.5,1.5,0,0,0-.48.49,1.42,1.42,0,0,0-.18.74.84.84,0,0,0,.23.6,2.39,2.39,0,0,0,.57.44,4.5,4.5,0,0,0,.74.33l.71.24,1.32.44a4.94,4.94,0,0,1,1.17.59,2.71,2.71,0,0,1,.83.89,2.66,2.66,0,0,1,.32,1.38,2.8,2.8,0,0,1-.32,1.37,2.61,2.61,0,0,1-.86.95,4.16,4.16,0,0,1-1.32.54,7.47,7.47,0,0,1-1.68.17,8.42,8.42,0,0,1-1-.05c-.34,0-.67-.09-1-.15a7.24,7.24,0,0,1-1-.25,5.15,5.15,0,0,1-.81-.36Z"/></g></g></svg>