<svg width="24" height="24" viewBox="0 0 24 24" fill="none" xmlns="http://www.w3.org/2000/svg">
<path d="M22 8.5H19.75C19.2859 8.5 18.8408 8.68437 18.5126 9.01256C18.1844 9.34075 18 9.78587 18 10.25V10.25C18 11.216 18.784 12 19.75 12H21.25C22.216 12 23 12.784 23 13.75C23 14.2141 22.8156 14.6592 22.4874 14.9874C22.1592 15.3156 21.7141 15.5 21.25 15.5H18" stroke="#060D00" stroke-width="1.5" stroke-linecap="round" stroke-linejoin="round"/>
<path d="M10.5 15.5V12.7V15.5ZM10.5 12.7H13.357C14.071 12.7 15.5 12.7 15.5 10.6C15.5 8.5 14.071 8.5 13.357 8.5H10.5V12.7Z" stroke="#060D00" stroke-width="1.5" stroke-linecap="round" stroke-linejoin="round"/>
<path d="M6.49994 9.127C6.04907 8.81329 5.53069 8.61011 4.98674 8.53387C4.44278 8.45764 3.88852 8.5105 3.36878 8.68818C2.84904 8.86586 2.37842 9.16338 1.99497 9.55666C1.61153 9.94994 1.32602 10.4279 1.16156 10.952C0.997092 11.4761 0.958279 12.0315 1.04826 12.5734C1.13824 13.1152 1.35448 13.6283 1.6795 14.0711C2.00453 14.5138 2.4292 14.8739 2.91917 15.1222C3.40915 15.3704 3.95067 15.4998 4.49994 15.5C6.43294 15.5 7.99994 14 7.99994 12H4.99994" stroke="#060D00" stroke-width="1.5" stroke-linecap="round" stroke-linejoin="round"/>
</svg>
