<svg width="24" height="24" viewBox="0 0 24 24" fill="none" xmlns="http://www.w3.org/2000/svg">
<g clip-path="url(#clip0_1_216)">
<path d="M3.012 3.60001C1.35888 3.60001 0 4.95865 0 6.61201C0 8.05609 1.03608 9.27505 2.4 9.56065V14.4634C1.03608 14.749 0 15.9682 0 17.4122C0 19.0656 1.35864 20.424 3.012 20.424C4.46328 20.424 5.6736 19.3742 5.94984 18H18.059C18.3355 19.3757 19.5598 20.424 21.0122 20.424C22.6082 20.424 23.9174 19.1549 24.007 17.5795C24.0181 17.5245 24.0238 17.4684 24.0238 17.4122C24.0238 17.3561 24.0181 17.3 24.007 17.245C23.9287 15.8681 22.9188 14.7254 21.6 14.459V9.56497C22.9188 9.29857 23.9287 8.15617 24.0072 6.77953C24.0184 6.72447 24.024 6.66843 24.024 6.61225C24.024 6.55607 24.0184 6.50002 24.0072 6.44497C23.9172 4.86961 22.6082 3.60001 21.012 3.60001C19.5682 3.60001 18.349 4.63609 18.0634 6.00001H5.9448C5.6592 4.63777 4.45464 3.60001 3.012 3.60001V3.60001ZM3.012 5.28001C3.75768 5.28001 4.344 5.86657 4.344 6.61201C4.344 7.35769 3.75768 7.94401 3.012 7.94401C2.2668 7.94401 1.68 7.35769 1.68 6.61201C1.68 5.86681 2.26656 5.28001 3.012 5.28001ZM21.012 5.28001C21.7577 5.28001 22.344 5.86657 22.344 6.61201C22.344 7.35769 21.7577 7.94401 21.012 7.94401C20.2666 7.94401 19.68 7.35769 19.68 6.61201C19.68 5.86657 20.2666 5.28001 21.012 5.28001ZM5.81232 7.68001H18.2011C18.3524 8.07206 18.5832 8.42854 18.879 8.72698C19.1748 9.02541 19.5293 9.25934 19.92 9.41401V14.61C19.5333 14.7631 19.182 14.9938 18.8879 15.2879C18.5938 15.582 18.3631 15.9333 18.21 16.32H5.802C5.64915 15.9302 5.41724 15.5762 5.12088 15.2804C4.82451 14.9845 4.47012 14.7533 4.08 14.6011V9.42289C4.47432 9.26928 4.83213 9.03486 5.13043 8.7347C5.42874 8.43454 5.66093 8.07527 5.81208 7.68001H5.81232ZM3.012 16.08C3.75744 16.08 4.34376 16.6666 4.34376 17.412C4.34376 18.1577 3.75744 18.744 3.01176 18.744C2.2668 18.744 1.68 18.1577 1.68 17.412C1.68 16.6668 2.26656 16.08 3.012 16.08ZM21.012 16.08C21.7574 16.08 22.3438 16.6666 22.3438 17.412C22.3438 18.1577 21.7574 18.744 21.0118 18.744C20.2663 18.744 19.6798 18.1577 19.6798 17.412C19.6798 16.6666 20.2663 16.08 21.0118 16.08H21.012Z" fill="black"/>
</g>
<defs>
<clipPath id="clip0_1_216">
<rect width="24" height="24" fill="white"/>
</clipPath>
</defs>
</svg>
